<svg id="Слой_1" data-name="Слой 1" xmlns="http://www.w3.org/2000/svg"><defs><style>.cls-1{fill:#ffd05a;}.cls-2{fill:#fff;}</style></defs><title>Collingswood RWSI verh</title><path class="cls-1" d="M18.35,38.32a16.84,16.84,0,0,1-6.57-7,21.83,21.83,0,0,1-2.32-10.2A21.84,21.84,0,0,1,11.78,11a16.85,16.85,0,0,1,6.57-7,18.21,18.21,0,0,1,7-2.31H6.1A5.67,5.67,0,0,0,.43,7.37V35A5.67,5.67,0,0,0,6.1,40.63H25.36A18.2,18.2,0,0,1,18.35,38.32Z"/><path class="cls-1" d="M50,1.7H31.19a17.74,17.74,0,0,1,9.22,3.7,17.73,17.73,0,0,1,6.25,10.47H36.79a9.07,9.07,0,0,0-3.35-4.2,9.38,9.38,0,0,0-5.37-1.53,8.18,8.18,0,0,0-6.6,3,12.09,12.09,0,0,0-2.51,8,12,12,0,0,0,2.51,8,8.21,8.21,0,0,0,6.6,3,9.38,9.38,0,0,0,5.37-1.53,9.1,9.1,0,0,0,3.35-4.15h9.87A17.38,17.38,0,0,1,31.18,40.63H50A5.67,5.67,0,0,0,55.69,35V7.37A5.67,5.67,0,0,0,50,1.7ZM27.43,26.36H22.91V21.84h4.52Zm0-5.74H22.91V16.11h4.52Zm5.78,5.74H28.69V21.84h4.52Zm0-5.74H28.69V16.11h4.52Z"/><path class="cls-2" d="M71.86,3.67l3.79.17.11,3.35h-.59l-.63-2.41a6,6,0,0,0-2.36-.42A5,5,0,0,0,68.5,5.81,5.77,5.77,0,0,0,67,10.07a5.41,5.41,0,0,0,1.43,4.13,5.13,5.13,0,0,0,3.65,1.33,7.56,7.56,0,0,0,2.67-.44L75.46,13,76,13l-.11,2.76a18.2,18.2,0,0,1-3.63.44,15.55,15.55,0,0,1-2.5-.17,7.81,7.81,0,0,1-1.92-.59,5.21,5.21,0,0,1-1.59-1.09,4.81,4.81,0,0,1-1-1.72,7.42,7.42,0,0,1-.4-2.59,6.66,6.66,0,0,1,.6-2.82A5.15,5.15,0,0,1,67,5.18,8,8,0,0,1,71.86,3.67Z"/><path class="cls-2" d="M86.87,11.6A4.75,4.75,0,0,1,85.64,15a4.92,4.92,0,0,1-6.72,0,4.75,4.75,0,0,1-1.23-3.37,4.75,4.75,0,0,1,1.23-3.37,4.92,4.92,0,0,1,6.72,0A4.75,4.75,0,0,1,86.87,11.6Zm-7.18,0q0,4.25,2.59,4.25t2.59-4.25a6.74,6.74,0,0,0-.59-3.15,2.37,2.37,0,0,0-4,0A6.65,6.65,0,0,0,79.7,11.6Z"/><path class="cls-2" d="M92.43,16.09H88.2v-.44l1.21-.09V2.88L87.77,2.8V2.38L91.22,2V15.56l1.21.09Z"/><path class="cls-2" d="M97.66,16.09H93.42v-.44l1.21-.09V2.88L93,2.8V2.38L96.44,2V15.56l1.21.09Z"/><path class="cls-2" d="M98.89,16.09v-.44l1.21-.09V7.73l-1.62-.06V7.26L101.91,7v8.54l1.21.09v.44ZM102,4.1a1.07,1.07,0,0,1-.31.77,1,1,0,0,1-.78.32,1.07,1.07,0,0,1-1.09-1.1,1.09,1.09,0,0,1,.31-.79,1,1,0,0,1,.77-.32,1,1,0,0,1,.78.33A1.08,1.08,0,0,1,102,4.1Z"/><path class="cls-2" d="M107.32,9.06a3.23,3.23,0,0,1,3.33-2.13,2.79,2.79,0,0,1,2,.75,2.81,2.81,0,0,1,.77,2.13q0,2.37-.15,5.76l1.27.09v.44H110.5v-.44l1-.07q.15-4.16.15-4.77t0-.93a7,7,0,0,0-.1-.79,2.2,2.2,0,0,0-.25-.75A1.37,1.37,0,0,0,110,7.66a2.34,2.34,0,0,0-1.93,1,3.39,3.39,0,0,0-.75,2.12v4.8l1.38.09v.44h-4.4v-.44l1.21-.09V7.77L104,7.7V7.27l3.29-.22-.09,2Z"/><path class="cls-2" d="M118,14.25q0,.42.6.56a22.87,22.87,0,0,0,2.49.3,6.6,6.6,0,0,1,2.72.67,1.76,1.76,0,0,1,.83,1.63,3,3,0,0,1-1.35,2.45,7,7,0,0,1-6.67.32,2.12,2.12,0,0,1-1-1.83,2.36,2.36,0,0,1,.5-1.43,2.65,2.65,0,0,1,1.45-.95,1.42,1.42,0,0,1-1.12-1.34,1.1,1.1,0,0,1,.57-.93,3,3,0,0,1,1.29-.47,3.31,3.31,0,0,1-1.78-1.15,3.08,3.08,0,0,1-.63-1.92A3,3,0,0,1,117,7.83a4.21,4.21,0,0,1,2.86-.92A5.43,5.43,0,0,1,121,7a1.44,1.44,0,0,0,.85-.55,1.64,1.64,0,0,0,.33-1,6.08,6.08,0,0,0-.06-.88,1.3,1.3,0,0,1,.52-.11,1.15,1.15,0,0,1,.52.13.92.92,0,0,1,.5.89A1.39,1.39,0,0,1,123,6.65a2.66,2.66,0,0,1-1.45.55,3.08,3.08,0,0,1,1.53,1.15,3.14,3.14,0,0,1,.53,1.81,2.77,2.77,0,0,1-1.19,2.39,4.89,4.89,0,0,1-2.92.85,2,2,0,0,0-1.06.29Q118,14,118,14.25Zm-1,3.9a1.82,1.82,0,0,0,.8,1.56,3.46,3.46,0,0,0,2.08.58,4.18,4.18,0,0,0,2.29-.64,1.93,1.93,0,0,0,1-1.62,1.11,1.11,0,0,0-.4-.94,2,2,0,0,0-1-.37q-.63-.09-1.74-.21t-1.9-.29a2.17,2.17,0,0,0-.84.8A2.1,2.1,0,0,0,117.07,18.15ZM119.72,13a1.68,1.68,0,0,0,1.53-.79,3.82,3.82,0,0,0,.5-2.06q0-2.85-1.9-2.85a1.72,1.72,0,0,0-1.54.76,3.74,3.74,0,0,0-.51,2.09Q117.81,13,119.72,13Z"/><path class="cls-2" d="M128.7,15.83a2.08,2.08,0,0,0,1.28-.4,1.59,1.59,0,0,0,.54-1.36,1.28,1.28,0,0,0-.58-1.07,6.47,6.47,0,0,0-1.44-.76l-1.17-.48a7.18,7.18,0,0,1-.8-.45,2,2,0,0,1-.9-1.75,2.37,2.37,0,0,1,.9-1.9,4,4,0,0,1,2.63-.75,3.49,3.49,0,0,1,1.89.49,1.39,1.39,0,0,1,.78,1.17,1,1,0,0,1-.52.94,1.28,1.28,0,0,1-.54.13,1.32,1.32,0,0,1-.52-.11,3.32,3.32,0,0,0,.07-.72,1.79,1.79,0,0,0-.18-.77,1.2,1.2,0,0,0-1.2-.66,1.78,1.78,0,0,0-1.34.48,1.73,1.73,0,0,0-.46,1.25,1.27,1.27,0,0,0,.66,1.18,6.09,6.09,0,0,0,1.23.57l1,.36a6.3,6.3,0,0,1,.71.34,2.33,2.33,0,0,1,.66.5,2.42,2.42,0,0,1,.57,1.69,2.23,2.23,0,0,1-1,1.81,3.69,3.69,0,0,1-2.34.75,6.39,6.39,0,0,1-2.42-.42q-1-.42-1-1.23t1.12-1A2.22,2.22,0,0,0,128.7,15.83Z"/><path class="cls-2" d="M132.86,7.11h3.79v.42l-1.21.15,2.61,6.44,1.62-4.29-.9-2.15L138,7.59V7.11h3.72v.42l-1.23.15,2.63,6.44,2.28-6.18-1.2-.35V7.11h3.09v.48l-1.12.35-3.13,8.15h-.74l-2.25-5.32L138,16.09h-.74l-3.55-8.41-.83-.13Z"/><path class="cls-2" d="M157.14,11.6A4.75,4.75,0,0,1,155.9,15a4.92,4.92,0,0,1-6.72,0A4.75,4.75,0,0,1,148,11.6a4.75,4.75,0,0,1,1.23-3.37,4.92,4.92,0,0,1,6.72,0A4.75,4.75,0,0,1,157.14,11.6Zm-7.18,0q0,4.25,2.59,4.25t2.59-4.25a6.74,6.74,0,0,0-.59-3.15,2.37,2.37,0,0,0-4,0A6.65,6.65,0,0,0,150,11.6Z"/><path class="cls-2" d="M168,11.6A4.75,4.75,0,0,1,166.74,15,4.92,4.92,0,0,1,160,15a4.75,4.75,0,0,1-1.23-3.37A4.75,4.75,0,0,1,160,8.23a4.92,4.92,0,0,1,6.72,0A4.75,4.75,0,0,1,168,11.6Zm-7.18,0q0,4.25,2.59,4.25T166,11.6a6.74,6.74,0,0,0-.59-3.15,2.37,2.37,0,0,0-4,0A6.65,6.65,0,0,0,160.8,11.6Z"/><path class="cls-2" d="M173.4,16.37a3.55,3.55,0,0,1-2.67-1.13,4.72,4.72,0,0,1-1.09-3.39A4.79,4.79,0,0,1,171,8.29,4.76,4.76,0,0,1,174.47,7a4.55,4.55,0,0,1,2.15.53V2.88L175,2.8l0-.42,3.4-.39V15.67l1.56.07,0,.42-3.26.22,0-1.77h-.11a3,3,0,0,1-1.34,1.29A4.12,4.12,0,0,1,173.4,16.37Zm3.22-3.09V8.21a3.48,3.48,0,0,0-2.19-.68,2.24,2.24,0,0,0-2.25,1.34,8,8,0,0,0-.5,3.11q0,3.81,2.06,3.81a2.72,2.72,0,0,0,2-.88A2.49,2.49,0,0,0,176.62,13.27Z"/><path class="cls-1" d="M68,25.84l2.1-.06q4.18,0,4.18,3.15a2.93,2.93,0,0,1-.93,2.24,3.36,3.36,0,0,1-2.4.87l-.46,0v0a3.9,3.9,0,0,1,2.71,1.28,5.14,5.14,0,0,1,.75,3.06q0,1.29.48,1.49A1.1,1.1,0,0,0,75,38a3,3,0,0,0,1-.24v.46a5.34,5.34,0,0,1-1.78.35A2,2,0,0,1,72,37.05a4.77,4.77,0,0,1-.12-1.14q0-.74-.06-1.31a4.78,4.78,0,0,0-.26-1.14Q71.1,32.23,69,32.23H68v5.41l1.42.13v.4H64.72v-.39l1.38-.15V26.45l-1.6-.18v-.48q1.18.05,2.52.06Zm0,5.85h.92q3.29,0,3.29-2.76a2.64,2.64,0,0,0-.64-2,2.91,2.91,0,0,0-2.06-.62q-.55,0-1.51.07Z"/><path class="cls-1" d="M75.13,25.88h5v.39l-1.47.17L82,35.87l2.65-6.7-1-2.74-1.42-.17v-.39h5v.39l-1.47.17,3.37,9.44,3.5-9.07-1.62-.48v-.44h3.85v.44l-1.4.5L88.92,38.28h-.83L85,30.22l-3.18,8.06H81L76.55,26.43l-1.42-.17Z"/><path class="cls-1" d="M102,26.49a6.12,6.12,0,0,0-2-.35,3,3,0,0,0-1.84.6,2.09,2.09,0,0,0-.79,1.78,1.94,1.94,0,0,0,1,1.75,7,7,0,0,0,.87.48q.34.15,1,.39l.89.34.71.31a4.2,4.2,0,0,1,.7.38q.23.17.56.46a2.35,2.35,0,0,1,.5.59,3.41,3.41,0,0,1,.41,1.64,3.11,3.11,0,0,1-1.27,2.56,5.19,5.19,0,0,1-3.29,1,8,8,0,0,1-2.89-.52,2.89,2.89,0,0,1-1.09-.66,1.34,1.34,0,0,1-.42-1q0-.9,1.31-1.23a3.78,3.78,0,0,0,.77,1.79,2.84,2.84,0,0,0,1.19.9,4.49,4.49,0,0,0,1.51.22,2.8,2.8,0,0,0,1.68-.58,2.2,2.2,0,0,0,.79-1.9,2,2,0,0,0-.92-1.66,10.12,10.12,0,0,0-1.81-.94l-1.44-.6a8.59,8.59,0,0,1-.95-.5,3.28,3.28,0,0,1-.86-.67,3.27,3.27,0,0,1,.52-4.6,5.75,5.75,0,0,1,3.4-.88,18.44,18.44,0,0,1,3,.29v2.71h-.57Z"/><path class="cls-1" d="M110.58,38.17h-5.1v-.44l1.6-.17V26.49l-1.6-.17v-.44h5.1v.44l-1.6.17V37.57l1.6.17Z"/></svg>