<svg id="Слой_1" data-name="Слой 1" xmlns="http://www.w3.org/2000/svg" viewBox="0 0 175 50"><defs><style>.cls-1{fill:#ffd05a;}.cls-2{fill:#fff;}</style></defs><title>Collingswood RWSI niz</title><path class="cls-1" d="M17.68,41a16.38,16.38,0,0,1-6.39-6.76A21.24,21.24,0,0,1,9,24.35a21.24,21.24,0,0,1,2.25-9.92,16.39,16.39,0,0,1,6.39-6.76A17.71,17.71,0,0,1,24.5,5.42H5.76A5.51,5.51,0,0,0,.25,10.94V37.77a5.51,5.51,0,0,0,5.51,5.51H24.5A17.7,17.7,0,0,1,17.68,41Z"/><path class="cls-1" d="M48.49,5.42H30.17a16.82,16.82,0,0,1,15,13.78h-9.6a8.82,8.82,0,0,0-3.26-4.08,9.12,9.12,0,0,0-5.23-1.49,8,8,0,0,0-6.42,2.92,11.76,11.76,0,0,0-2.44,7.8,11.65,11.65,0,0,0,2.44,7.77A8,8,0,0,0,27.13,35a9.12,9.12,0,0,0,5.23-1.49,8.85,8.85,0,0,0,3.26-4h9.6A16.9,16.9,0,0,1,30.17,43.28H48.49A5.51,5.51,0,0,0,54,37.77V10.94A5.51,5.51,0,0,0,48.49,5.42Zm-22,24h-4.4V25h4.4Zm0-5.58h-4.4v-4.4h4.4Zm5.62,5.58h-4.4V25h4.4Zm0-5.58h-4.4v-4.4h4.4Z"/><path class="cls-2" d="M69.72,7.34l3.69.16.11,3.26h-.57l-.61-2.34A5.82,5.82,0,0,0,70,8a4.87,4.87,0,0,0-3.59,1.42A5.62,5.62,0,0,0,65,13.57a5.26,5.26,0,0,0,1.39,4A5,5,0,0,0,70,18.88a7.35,7.35,0,0,0,2.6-.43l.66-2.06.5,0-.11,2.69a17.7,17.7,0,0,1-3.54.43,15.13,15.13,0,0,1-2.43-.16,7.59,7.59,0,0,1-1.87-.57,5.07,5.07,0,0,1-1.55-1.06,4.68,4.68,0,0,1-1-1.67,7.21,7.21,0,0,1-.38-2.51,6.48,6.48,0,0,1,.58-2.75A5,5,0,0,1,65,8.8,7.73,7.73,0,0,1,69.72,7.34Z"/><path class="cls-2" d="M84.33,15.05a4.62,4.62,0,0,1-1.2,3.28,4.78,4.78,0,0,1-6.53,0,4.62,4.62,0,0,1-1.2-3.28,4.62,4.62,0,0,1,1.2-3.28,4.78,4.78,0,0,1,6.53,0A4.62,4.62,0,0,1,84.33,15.05Zm-7,0q0,4.13,2.52,4.13t2.51-4.13A6.55,6.55,0,0,0,81.8,12a2.31,2.31,0,0,0-3.88,0A6.47,6.47,0,0,0,77.35,15.05Z"/><path class="cls-2" d="M89.73,19.42H85.62V19l1.18-.09V6.57L85.2,6.49V6.08l3.35-.38V18.9l1.18.09Z"/><path class="cls-2" d="M94.82,19.42H90.7V19l1.18-.09V6.57l-1.59-.07V6.08l3.35-.38V18.9l1.18.09Z"/><path class="cls-2" d="M96,19.42V19l1.18-.09V11.29l-1.58-.05v-.41L99,10.59V18.9l1.18.09v.43Zm3-11.66a1,1,0,0,1-.3.75,1,1,0,0,1-.76.31,1,1,0,0,1-1.06-1.07,1.06,1.06,0,0,1,.3-.77A1,1,0,0,1,98,6.67a1,1,0,0,1,.76.32A1.05,1.05,0,0,1,99.06,7.76Z"/><path class="cls-2" d="M104.21,12.58a3.14,3.14,0,0,1,3.24-2.08,2.55,2.55,0,0,1,2.72,2.79q0,2.31-.14,5.6l1.23.09v.43h-4V19l1-.07q.14-4,.14-4.64t0-.9a6.79,6.79,0,0,0-.1-.77,2.14,2.14,0,0,0-.24-.72,1.33,1.33,0,0,0-1.24-.66,2.27,2.27,0,0,0-1.88.95,3.29,3.29,0,0,0-.73,2.06V18.9l1.34.09v.43h-4.28V19l1.18-.09V11.33l-1.52-.07v-.41l3.2-.21-.09,1.93Z"/><path class="cls-2" d="M114.65,17.63q0,.41.58.55a22.24,22.24,0,0,0,2.43.29,6.42,6.42,0,0,1,2.65.65,1.72,1.72,0,0,1,.81,1.58,2.9,2.9,0,0,1-1.32,2.38,6.83,6.83,0,0,1-6.49.31,2.06,2.06,0,0,1-1-1.78,2.29,2.29,0,0,1,.48-1.39,2.58,2.58,0,0,1,1.41-.92A1.38,1.38,0,0,1,113.13,18a1.07,1.07,0,0,1,.55-.9,2.92,2.92,0,0,1,1.25-.46,3.22,3.22,0,0,1-1.74-1.12,3,3,0,0,1-.61-1.87,2.88,2.88,0,0,1,1-2.27,4.1,4.1,0,0,1,2.78-.89,5.29,5.29,0,0,1,1.09.13,1.4,1.4,0,0,0,.82-.54,1.6,1.6,0,0,0,.32-.95,5.92,5.92,0,0,0-.05-.86,1.26,1.26,0,0,1,.5-.11,1.12,1.12,0,0,1,.5.13.9.9,0,0,1,.48.87,1.36,1.36,0,0,1-.59,1.08,2.59,2.59,0,0,1-1.41.54,3,3,0,0,1,1.49,1.12,3.05,3.05,0,0,1,.52,1.76A2.69,2.69,0,0,1,118.92,16a4.76,4.76,0,0,1-2.84.82,2,2,0,0,0-1,.28Q114.65,17.34,114.65,17.63Zm-.95,3.79a1.77,1.77,0,0,0,.78,1.51,3.37,3.37,0,0,0,2,.56,4.07,4.07,0,0,0,2.23-.63,1.88,1.88,0,0,0,1-1.58,1.08,1.08,0,0,0-.39-.91,2,2,0,0,0-.95-.36q-.61-.09-1.69-.21t-1.85-.28a2.11,2.11,0,0,0-.81.78A2,2,0,0,0,113.7,21.42Zm2.58-5a1.63,1.63,0,0,0,1.49-.77,3.72,3.72,0,0,0,.48-2q0-2.77-1.84-2.77a1.67,1.67,0,0,0-1.49.74,3.64,3.64,0,0,0-.49,2Q114.41,16.43,116.28,16.43Z"/><path class="cls-2" d="M125,19.17a2,2,0,0,0,1.24-.39,1.55,1.55,0,0,0,.53-1.32,1.24,1.24,0,0,0-.56-1,6.29,6.29,0,0,0-1.41-.74l-1.14-.47a7,7,0,0,1-.78-.44,1.93,1.93,0,0,1-.88-1.7,2.31,2.31,0,0,1,.88-1.84,3.9,3.9,0,0,1,2.56-.73,3.4,3.4,0,0,1,1.83.47,1.35,1.35,0,0,1,.76,1.14.93.93,0,0,1-.5.91,1.24,1.24,0,0,1-.53.13,1.28,1.28,0,0,1-.51-.11,3.23,3.23,0,0,0,.07-.7,1.74,1.74,0,0,0-.18-.75,1.16,1.16,0,0,0-1.16-.64,1.73,1.73,0,0,0-1.31.47,1.68,1.68,0,0,0-.45,1.22,1.24,1.24,0,0,0,.64,1.15,5.93,5.93,0,0,0,1.2.56l1,.35A6.12,6.12,0,0,1,127,15a2.27,2.27,0,0,1,.64.48,2.35,2.35,0,0,1,.56,1.65,2.17,2.17,0,0,1-.93,1.76,3.59,3.59,0,0,1-2.27.73,6.22,6.22,0,0,1-2.35-.41q-1-.41-1-1.2t1.09-1A2.16,2.16,0,0,0,125,19.17Z"/><path class="cls-2" d="M129.06,10.68h3.69v.41l-1.18.14,2.54,6.26,1.57-4.17-.88-2.09-.73-.09v-.46h3.62v.41l-1.2.14L139,17.5l2.22-6-1.16-.34v-.46h3v.46l-1.09.34-3,7.93h-.72l-2.18-5.17-2,5.17h-.72l-3.45-8.18-.81-.13Z"/><path class="cls-2" d="M152.66,15.05a4.62,4.62,0,0,1-1.2,3.28,4.78,4.78,0,0,1-6.53,0,4.62,4.62,0,0,1-1.2-3.28,4.62,4.62,0,0,1,1.2-3.28,4.78,4.78,0,0,1,6.53,0A4.62,4.62,0,0,1,152.66,15.05Zm-7,0q0,4.13,2.52,4.13t2.51-4.13a6.55,6.55,0,0,0-.57-3.06,2.31,2.31,0,0,0-3.88,0A6.47,6.47,0,0,0,145.68,15.05Z"/><path class="cls-2" d="M163.21,15.05a4.62,4.62,0,0,1-1.2,3.28,4.78,4.78,0,0,1-6.53,0,4.62,4.62,0,0,1-1.2-3.28,4.62,4.62,0,0,1,1.2-3.28,4.78,4.78,0,0,1,6.53,0A4.62,4.62,0,0,1,163.21,15.05Zm-7,0q0,4.13,2.52,4.13t2.51-4.13a6.55,6.55,0,0,0-.57-3.06,2.31,2.31,0,0,0-3.88,0A6.47,6.47,0,0,0,156.23,15.05Z"/><path class="cls-2" d="M168.49,19.69a3.45,3.45,0,0,1-2.6-1.1,4.59,4.59,0,0,1-1.06-3.29,4.4,4.4,0,0,1,4.69-4.73,4.42,4.42,0,0,1,2.09.52V6.57L170,6.49l0-.41,3.31-.38V19l1.52.07,0,.41-3.17.21,0-1.72h-.11a3,3,0,0,1-1.31,1.25A4,4,0,0,1,168.49,19.69Zm3.13-3V11.76a3.39,3.39,0,0,0-2.13-.66,2.18,2.18,0,0,0-2.18,1.31,7.73,7.73,0,0,0-.48,3q0,3.7,2,3.71a2.64,2.64,0,0,0,2-.86A2.42,2.42,0,0,0,171.62,16.68Z"/><path class="cls-1" d="M65.93,28.9l2-.05q4.06,0,4.06,3.06a2.85,2.85,0,0,1-.9,2.17,3.27,3.27,0,0,1-2.34.85l-.45,0v0A3.8,3.8,0,0,1,71,36.18a5,5,0,0,1,.72,3q0,1.25.47,1.45a1.07,1.07,0,0,0,.6.14,2.94,2.94,0,0,0,1-.23V41a5.19,5.19,0,0,1-1.74.34,2,2,0,0,1-2.17-1.5,4.64,4.64,0,0,1-.12-1.11q0-.72-.06-1.27a4.65,4.65,0,0,0-.25-1.11Q69,35.11,67,35.11H66v5.26l1.38.13v.39H62.78v-.38l1.34-.14V29.49l-1.56-.18v-.47q1.15.05,2.45.05Zm0,5.69h.89q3.2,0,3.2-2.68A2.57,2.57,0,0,0,69.44,30a2.83,2.83,0,0,0-2-.6q-.54,0-1.47.07Z"/><path class="cls-1" d="M72.91,28.94h4.83v.38l-1.43.16,3.28,9.18,2.58-6.52-1-2.67-1.38-.16v-.38h4.83v.38l-1.43.16,3.28,9.18,3.4-8.82-1.58-.47v-.43H92v.43l-1.36.48L86.31,41h-.81l-3-7.84L79.44,41h-.81L74.29,29.48l-1.38-.16Z"/><path class="cls-1" d="M99.08,29.53a6,6,0,0,0-2-.34,2.89,2.89,0,0,0-1.79.58,2,2,0,0,0-.77,1.73,1.89,1.89,0,0,0,.95,1.7,6.84,6.84,0,0,0,.85.46q.33.14,1,.38l.87.33.69.3a4.08,4.08,0,0,1,.68.37q.22.16.55.45a2.28,2.28,0,0,1,.48.57,3.31,3.31,0,0,1,.39,1.59,3,3,0,0,1-1.24,2.49,5,5,0,0,1-3.2,1,7.79,7.79,0,0,1-2.81-.5A2.82,2.82,0,0,1,92.65,40a1.3,1.3,0,0,1-.41-.95q0-.88,1.27-1.2a3.68,3.68,0,0,0,.75,1.74,2.77,2.77,0,0,0,1.15.88,4.37,4.37,0,0,0,1.47.21,2.72,2.72,0,0,0,1.64-.56,2.14,2.14,0,0,0,.77-1.85,1.9,1.9,0,0,0-.9-1.61,9.84,9.84,0,0,0-1.76-.91l-1.41-.58a8.36,8.36,0,0,1-.92-.48,3.19,3.19,0,0,1-.83-.65,3.18,3.18,0,0,1,.5-4.47,5.59,5.59,0,0,1,3.31-.86,17.93,17.93,0,0,1,3,.29v2.63h-.55Z"/><path class="cls-1" d="M107.38,40.9h-5v-.43l1.56-.16V29.53l-1.56-.16v-.43h5v.43l-1.56.16V40.31l1.56.16Z"/></svg>