<svg id="Слой_1" data-name="Слой 1" xmlns="http://www.w3.org/2000/svg" viewBox="0 0 162.77 21.5"><defs><style>.cls-1{fill:#fff;}.cls-2{fill:#ffd05a;}.cls-3{fill:none;stroke:#ffd05a;stroke-miterlimit:10;}</style></defs><title>Collingswood RWSI LEGACY</title><path class="cls-1" d="M11.13,5.7a3.37,3.37,0,0,1-.44,1.77,2.93,2.93,0,0,1-1.2,1.12,7.57,7.57,0,0,1-3.39.7q-.48,0-1.29-.07v5.17l1.42.09v.44H1.54v-.44l1.38-.09V3.24L1.32,3V2.59H4.76L7,2.54Q11.13,2.54,11.13,5.7Zm-5.5,3A3.73,3.73,0,0,0,8.2,7.91a2.79,2.79,0,0,0,.9-2.18,2.72,2.72,0,0,0-.64-2A2.85,2.85,0,0,0,6.4,3.09q-.63,0-1.58.07V8.68A6.43,6.43,0,0,0,5.63,8.72Z"/><path class="cls-1" d="M21.25,10.43A4.75,4.75,0,0,1,20,13.8a4.36,4.36,0,0,1-3.36,1.33A4.36,4.36,0,0,1,13.3,13.8a4.75,4.75,0,0,1-1.23-3.37A4.75,4.75,0,0,1,13.3,7.07a4.37,4.37,0,0,1,3.36-1.33A4.37,4.37,0,0,1,20,7.07,4.75,4.75,0,0,1,21.25,10.43Zm-7.18,0q0,4.25,2.59,4.25t2.59-4.25a6.74,6.74,0,0,0-.59-3.15,2.08,2.08,0,0,0-2-1.09,2.1,2.1,0,0,0-2,1.09A6.65,6.65,0,0,0,14.07,10.43Z"/><path class="cls-1" d="M21.91,5.94H25.7v.42l-1.21.15L27.1,13l1.62-4.29-.9-2.15-.75-.09V5.94h3.72v.42l-1.23.15L32.18,13l2.28-6.18-1.2-.35V5.94h3.09v.48l-1.12.35-3.13,8.15h-.74L29.13,9.61,27,14.92h-.74L22.74,6.51l-.83-.13Z"/><path class="cls-1" d="M38.18,13.84A4.89,4.89,0,0,1,37,10.43,4.74,4.74,0,0,1,38.25,7a4.07,4.07,0,0,1,3.08-1.29,4,4,0,0,1,2.78.84A3,3,0,0,1,45,8.91a5.39,5.39,0,0,1-.07.88H39v.64a6.56,6.56,0,0,0,.59,3.12,2,2,0,0,0,1.93,1.06A3.26,3.26,0,0,0,44.46,13q.41.13.4.39,0,.46-.85,1.07a3.68,3.68,0,0,1-1.14.51,5.9,5.9,0,0,1-1.64.21A3.91,3.91,0,0,1,38.18,13.84Zm5.1-5.32a2.87,2.87,0,0,0-.35-1.45,1.66,1.66,0,0,0-1.55-.81q-2,0-2.32,2.87h4.18A5.23,5.23,0,0,0,43.28,8.52Z"/><path class="cls-1" d="M52.31,5.72a1.14,1.14,0,0,1,.75.23.78.78,0,0,1,.28.63.89.89,0,0,1-.53.92,1.75,1.75,0,0,0-1.07-.24,2.51,2.51,0,0,0-1.48.51,1.42,1.42,0,0,0-.71,1.15v5.47l1.66.09v.44H46.54v-.44l1.21-.07V6.55L46.3,6.48V6.05l3.26-.2-.11,2.26h.07a3.57,3.57,0,0,1,1.15-1.69A2.59,2.59,0,0,1,52.31,5.72Z"/><path class="cls-1" d="M55.41,13.84a4.89,4.89,0,0,1-1.16-3.4A4.74,4.74,0,0,1,55.47,7a4.07,4.07,0,0,1,3.08-1.29,4,4,0,0,1,2.78.84,3,3,0,0,1,.92,2.33,5.39,5.39,0,0,1-.07.88H56.23v.64a6.56,6.56,0,0,0,.59,3.12,2,2,0,0,0,1.93,1.06A3.26,3.26,0,0,0,61.68,13q.41.13.4.39,0,.46-.85,1.07a3.68,3.68,0,0,1-1.14.51,5.9,5.9,0,0,1-1.64.21A3.91,3.91,0,0,1,55.41,13.84Zm5.1-5.32a2.87,2.87,0,0,0-.35-1.45,1.66,1.66,0,0,0-1.55-.81q-2,0-2.32,2.87h4.18A5.23,5.23,0,0,0,60.5,8.52Z"/><path class="cls-1" d="M67.68,15.2A3.55,3.55,0,0,1,65,14.07a4.72,4.72,0,0,1-1.09-3.39,4.79,4.79,0,0,1,1.32-3.56,4.76,4.76,0,0,1,3.51-1.31,4.55,4.55,0,0,1,2.15.53V1.71l-1.62-.07,0-.42,3.4-.39V14.5l1.56.07,0,.42L71,15.22l0-1.77h-.11a3,3,0,0,1-1.34,1.29A4.12,4.12,0,0,1,67.68,15.2Zm3.22-3.09V7a3.48,3.48,0,0,0-2.19-.68,2.24,2.24,0,0,0-2.25,1.34,7.94,7.94,0,0,0-.5,3.11q0,3.81,2.06,3.81a2.71,2.71,0,0,0,2-.88A2.49,2.49,0,0,0,70.9,12.11Z"/><path class="cls-1" d="M82.33.83l0,3.94a26.36,26.36,0,0,1-.09,2.67h.17a3.32,3.32,0,0,1,1.38-1.25,4.17,4.17,0,0,1,1.9-.44A3.43,3.43,0,0,1,88.22,6.8a4.66,4.66,0,0,1,1,3.35A5.2,5.2,0,0,1,88,13.79a4.52,4.52,0,0,1-3.51,1.35A5,5,0,0,1,83.31,15a3.58,3.58,0,0,1-1.1-.44l-1.69.59V1.71l-1.62-.07,0-.42Zm2.21,13.77a2.36,2.36,0,0,0,1.21-.29,2.29,2.29,0,0,0,.79-.74A3.64,3.64,0,0,0,87,12.44a13.08,13.08,0,0,0,.24-2.74,4.59,4.59,0,0,0-.57-2.52,1.81,1.81,0,0,0-1.6-.87,2.6,2.6,0,0,0-1.89.88,2.44,2.44,0,0,0-.86,1.61l0,5.12A3.48,3.48,0,0,0,84.54,14.59Z"/><path class="cls-1" d="M93.29,18.68a4,4,0,0,1-.95.76,2.23,2.23,0,0,1-1.15.34,1.26,1.26,0,0,1-.9-.3,1.06,1.06,0,0,1-.32-.81,1.55,1.55,0,0,1,.46-1,1.52,1.52,0,0,0,1.16.59,2,2,0,0,0,1.58-.8,8.76,8.76,0,0,0,1.29-2.51L90.92,6.53,90,6.42V5.94h3.92v.48l-1.27.11L95.27,13l2.26-6.18-1.47-.35V5.94h3.53v.48l-1.29.35-3.11,8.15-.52,1.31q-.18.46-.6,1.24A6.21,6.21,0,0,1,93.29,18.68Z"/><path class="cls-2" d="M104.54,2.63h5.1v.44l-1.6.17v11.1l4.64-.06.86-2.1H114l-.22,2.74h-9.26v-.44l1.6-.17V3.24l-1.6-.17Z"/><path class="cls-2" d="M116.28,13.84a4.89,4.89,0,0,1-1.16-3.4A4.74,4.74,0,0,1,116.35,7a4.07,4.07,0,0,1,3.08-1.29,4,4,0,0,1,2.78.84,3,3,0,0,1,.92,2.33,5.39,5.39,0,0,1-.07.88h-5.94v.64a6.56,6.56,0,0,0,.59,3.12,2,2,0,0,0,1.93,1.06A3.26,3.26,0,0,0,122.56,13q.41.13.4.39,0,.46-.85,1.07a3.68,3.68,0,0,1-1.14.51,5.9,5.9,0,0,1-1.64.21A3.91,3.91,0,0,1,116.28,13.84Zm5.1-5.32A2.87,2.87,0,0,0,121,7.07a1.66,1.66,0,0,0-1.55-.81q-2,0-2.32,2.87h4.18A5.23,5.23,0,0,0,121.38,8.52Z"/><path class="cls-2" d="M127,13.08q0,.42.6.56a22.83,22.83,0,0,0,2.49.3,6.59,6.59,0,0,1,2.72.67,1.76,1.76,0,0,1,.83,1.63,3,3,0,0,1-1.35,2.45,7,7,0,0,1-6.67.32,2.12,2.12,0,0,1-1-1.83,2.36,2.36,0,0,1,.5-1.43,2.65,2.65,0,0,1,1.45-.95,1.42,1.42,0,0,1-1.12-1.34,1.1,1.1,0,0,1,.57-.93,3,3,0,0,1,1.29-.47,3.31,3.31,0,0,1-1.78-1.15A3.07,3.07,0,0,1,124.9,9,3,3,0,0,1,126,6.66a4.21,4.21,0,0,1,2.86-.92,5.43,5.43,0,0,1,1.12.13,1.44,1.44,0,0,0,.85-.55,1.64,1.64,0,0,0,.33-1,6.07,6.07,0,0,0-.06-.88,1.29,1.29,0,0,1,.52-.11,1.16,1.16,0,0,1,.52.13.92.92,0,0,1,.5.89A1.39,1.39,0,0,1,132,5.48a2.66,2.66,0,0,1-1.45.55,3.08,3.08,0,0,1,1.53,1.15A3.14,3.14,0,0,1,132.59,9a2.77,2.77,0,0,1-1.19,2.39,4.89,4.89,0,0,1-2.92.85,2,2,0,0,0-1.06.29Q127,12.79,127,13.08ZM126,17a1.83,1.83,0,0,0,.8,1.56,3.47,3.47,0,0,0,2.08.58,4.18,4.18,0,0,0,2.29-.64,1.93,1.93,0,0,0,1-1.62,1.11,1.11,0,0,0-.4-.94,2,2,0,0,0-1-.37q-.63-.09-1.74-.21t-1.9-.29a2.17,2.17,0,0,0-.84.8A2.1,2.1,0,0,0,126,17Zm2.65-5.13a1.68,1.68,0,0,0,1.53-.79,3.82,3.82,0,0,0,.5-2.06q0-2.85-1.9-2.85a1.72,1.72,0,0,0-1.54.76A3.74,3.74,0,0,0,126.77,9Q126.77,11.85,128.69,11.85Z"/><path class="cls-2" d="M136.78,15.14a2.83,2.83,0,0,1-1.79-.58,1.94,1.94,0,0,1-.75-1.63,2.29,2.29,0,0,1,1.43-2.12,9.26,9.26,0,0,1,4-.7V8.54q0-2.34-1.69-2.34a1.66,1.66,0,0,0-1.4.72,2,2,0,0,0-.37,1.23,3.19,3.19,0,0,0,.07.66.89.89,0,0,1-.52.18,1.33,1.33,0,0,1-.52-.11.83.83,0,0,1-.59-.85,1.81,1.81,0,0,1,.61-1.4,3.93,3.93,0,0,1,2.74-.9,3.63,3.63,0,0,1,2.54.75,3.09,3.09,0,0,1,.79,2.35v5.58l1.55.07,0,.42-3.07.22-.17-1.64A3,3,0,0,1,136.78,15.14ZM136,12.94a1.26,1.26,0,0,0,1,1.42,1.77,1.77,0,0,0,.42.05,2.37,2.37,0,0,0,1.45-.6,2.05,2.05,0,0,0,.79-1.61V10.62Q136,10.65,136,12.94Z"/><path class="cls-2" d="M148.43,5.74a4.69,4.69,0,0,1,2,.44,2,2,0,0,1,.86.74,2.09,2.09,0,0,1,.32,1.16A.89.89,0,0,1,151,9a1.4,1.4,0,0,1-.51.09,1,1,0,0,1-.54-.18A5,5,0,0,0,150,8a1.74,1.74,0,0,0-.33-1,1.54,1.54,0,0,0-1.36-.72q-2.56,0-2.56,4.21a6.36,6.36,0,0,0,.6,3.1,2.07,2.07,0,0,0,1.94,1A3.12,3.12,0,0,0,151.06,13c.27.09.4.22.4.4a1.13,1.13,0,0,1-.34.66,3.25,3.25,0,0,1-1.18.75,4.85,4.85,0,0,1-1.92.36A3.94,3.94,0,0,1,145,13.84a4.87,4.87,0,0,1-1.17-3.4A4.66,4.66,0,0,1,145.06,7,4.51,4.51,0,0,1,148.43,5.74Z"/><path class="cls-2" d="M155.62,18.68a4,4,0,0,1-.95.76,2.23,2.23,0,0,1-1.15.34,1.26,1.26,0,0,1-.9-.3,1.06,1.06,0,0,1-.32-.81,1.55,1.55,0,0,1,.46-1,1.52,1.52,0,0,0,1.16.59,2,2,0,0,0,1.58-.8,8.76,8.76,0,0,0,1.29-2.51l-3.53-8.39-.94-.11V5.94h3.92v.48L155,6.53,157.6,13l2.26-6.18-1.47-.35V5.94h3.53v.48l-1.29.35-3.11,8.15L157,16.23q-.18.46-.6,1.24A6.21,6.21,0,0,1,155.62,18.68Z"/><line class="cls-3" x1="1.41" y1="17.15" x2="99.29" y2="17.15"/></svg>